<?xml version="1.0" standalone="no"?>
<svg xmlns:xlink="http://www.w3.org/1999/xlink" id="wave" style="transform:rotate(180deg); transition: 0.3s" viewBox="0 0 1440 120" version="1.1" xmlns="http://www.w3.org/2000/svg"><defs><linearGradient id="sw-gradient-0" x1="0" x2="0" y1="1" y2="0"><stop stop-color="rgba(224, 254, 249, 1)" offset="0%"/><stop stop-color="rgba(211.657, 241.757, 236.74, 1)" offset="100%"/></linearGradient></defs><path style="transform:translate(0, 0px); opacity:1" fill="url(#sw-gradient-0)" d="M0,0L120,18C240,36,480,72,720,78C960,84,1200,60,1440,52C1680,44,1920,52,2160,60C2400,68,2640,76,2880,72C3120,68,3360,52,3600,52C3840,52,4080,68,4320,80C4560,92,4800,100,5040,100C5280,100,5520,92,5760,80C6000,68,6240,52,6480,50C6720,48,6960,60,7200,70C7440,80,7680,88,7920,94C8160,100,8400,104,8640,104C8880,104,9120,100,9360,96C9600,92,9840,88,10080,82C10320,76,10560,68,10800,60C11040,52,11280,44,11520,36C11760,28,12000,20,12240,18C12480,16,12720,20,12960,36C13200,52,13440,80,13680,92C13920,104,14160,100,14400,96C14640,92,14880,88,15120,86C15360,84,15600,84,15840,82C16080,80,16320,76,16560,70C16800,64,17040,56,17160,52L17280,48L17280,120L17160,120C17040,120,16800,120,16560,120C16320,120,16080,120,15840,120C15600,120,15360,120,15120,120C14880,120,14640,120,14400,120C14160,120,13920,120,13680,120C13440,120,13200,120,12960,120C12720,120,12480,120,12240,120C12000,120,11760,120,11520,120C11280,120,11040,120,10800,120C10560,120,10320,120,10080,120C9840,120,9600,120,9360,120C9120,120,8880,120,8640,120C8400,120,8160,120,7920,120C7680,120,7440,120,7200,120C6960,120,6720,120,6480,120C6240,120,6000,120,5760,120C5520,120,5280,120,5040,120C4800,120,4560,120,4320,120C4080,120,3840,120,3600,120C3360,120,3120,120,2880,120C2640,120,2400,120,2160,120C1920,120,1680,120,1440,120C1200,120,960,120,720,120C480,120,240,120,120,120L0,120Z"/></svg>