<?xml version="1.0" standalone="no"?>
<svg xmlns:xlink="http://www.w3.org/1999/xlink" id="wave" style="transform:rotate(0deg); transition: 0.3s" viewBox="0 0 1440 100" version="1.1"
    xmlns="http://www.w3.org/2000/svg">
    <defs>
        <linearGradient id="sw-gradient-0" x1="0" x2="0" y1="1" y2="0">
            <stop stop-color="rgba(204,243,234,255)" offset="0%"/>
            <stop stop-color="rgba(204,243,234,255)" offset="100%"/>
        </linearGradient>
    </defs>
    <path style="transform:translate(0, 0px); opacity:1" fill="url(#sw-gradient-0)" d="M0,50L60,41.7C120,33,240,17,360,15C480,13,600,27,720,41.7C840,57,960,73,1080,78.3C1200,83,1320,77,1440,61.7C1560,47,1680,23,1800,11.7C1920,0,2040,0,2160,10C2280,20,2400,40,2520,40C2640,40,2760,20,2880,25C3000,30,3120,60,3240,75C3360,90,3480,90,3600,88.3C3720,87,3840,83,3960,76.7C4080,70,4200,60,4320,50C4440,40,4560,30,4680,36.7C4800,43,4920,67,5040,66.7C5160,67,5280,43,5400,41.7C5520,40,5640,60,5760,71.7C5880,83,6000,87,6120,88.3C6240,90,6360,90,6480,75C6600,60,6720,30,6840,21.7C6960,13,7080,27,7200,36.7C7320,47,7440,53,7560,48.3C7680,43,7800,27,7920,26.7C8040,27,8160,43,8280,56.7C8400,70,8520,80,8580,85L8640,90L8640,100L8580,100C8520,100,8400,100,8280,100C8160,100,8040,100,7920,100C7800,100,7680,100,7560,100C7440,100,7320,100,7200,100C7080,100,6960,100,6840,100C6720,100,6600,100,6480,100C6360,100,6240,100,6120,100C6000,100,5880,100,5760,100C5640,100,5520,100,5400,100C5280,100,5160,100,5040,100C4920,100,4800,100,4680,100C4560,100,4440,100,4320,100C4200,100,4080,100,3960,100C3840,100,3720,100,3600,100C3480,100,3360,100,3240,100C3120,100,3000,100,2880,100C2760,100,2640,100,2520,100C2400,100,2280,100,2160,100C2040,100,1920,100,1800,100C1680,100,1560,100,1440,100C1320,100,1200,100,1080,100C960,100,840,100,720,100C600,100,480,100,360,100C240,100,120,100,60,100L0,100Z"/>
</svg>
