<?xml version="1.0" standalone="no"?>
<svg xmlns:xlink="http://www.w3.org/1999/xlink" id="wave" style="transform:rotate(0deg); transition: 0.3s" viewBox="0 0 1440 100" version="1.1" xmlns="http://www.w3.org/2000/svg"><defs><linearGradient id="sw-gradient-0" x1="0" x2="0" y1="1" y2="0"><stop stop-color="rgba(156, 212, 203, 1)" offset="0%"/><stop stop-color="rgba(224, 254, 249, 1)" offset="100%"/></linearGradient></defs><path style="transform:translate(0, 0px); opacity:1" fill="url(#sw-gradient-0)" d="M0,70L60,66.7C120,63,240,57,360,48.3C480,40,600,30,720,21.7C840,13,960,7,1080,11.7C1200,17,1320,33,1440,38.3C1560,43,1680,37,1800,38.3C1920,40,2040,50,2160,58.3C2280,67,2400,73,2520,63.3C2640,53,2760,27,2880,25C3000,23,3120,47,3240,53.3C3360,60,3480,50,3600,38.3C3720,27,3840,13,3960,18.3C4080,23,4200,47,4320,51.7C4440,57,4560,43,4680,40C4800,37,4920,43,5040,48.3C5160,53,5280,57,5400,58.3C5520,60,5640,60,5760,55C5880,50,6000,40,6120,45C6240,50,6360,70,6480,68.3C6600,67,6720,43,6840,35C6960,27,7080,33,7200,30C7320,27,7440,13,7560,6.7C7680,0,7800,0,7920,10C8040,20,8160,40,8280,50C8400,60,8520,60,8580,60L8640,60L8640,100L8580,100C8520,100,8400,100,8280,100C8160,100,8040,100,7920,100C7800,100,7680,100,7560,100C7440,100,7320,100,7200,100C7080,100,6960,100,6840,100C6720,100,6600,100,6480,100C6360,100,6240,100,6120,100C6000,100,5880,100,5760,100C5640,100,5520,100,5400,100C5280,100,5160,100,5040,100C4920,100,4800,100,4680,100C4560,100,4440,100,4320,100C4200,100,4080,100,3960,100C3840,100,3720,100,3600,100C3480,100,3360,100,3240,100C3120,100,3000,100,2880,100C2760,100,2640,100,2520,100C2400,100,2280,100,2160,100C2040,100,1920,100,1800,100C1680,100,1560,100,1440,100C1320,100,1200,100,1080,100C960,100,840,100,720,100C600,100,480,100,360,100C240,100,120,100,60,100L0,100Z"/></svg>